<svg xmlns="http://www.w3.org/2000/svg" xmlns:xlink="http://www.w3.org/1999/xlink" version="1.1" id="Layer_1" x="0px" y="0px" width="100px" height="100px" viewBox="0 0 100 100" style="fill:white; opacity:0.7; "enable-background="new 0 0 100 100" xml:space="preserve">
<g>
	<path d="M50,3.5C24.319,3.5,3.5,24.319,3.5,50c0,25.682,20.819,46.5,46.5,46.5c25.682,0,46.5-20.818,46.5-46.5   C96.5,24.319,75.682,3.5,50,3.5z M50,86.5c-20.126,0-36.5-16.374-36.5-36.5S29.874,13.5,50,13.5S86.5,29.874,86.5,50   S70.126,86.5,50,86.5z"/>
	<path d="M68.75,46H54V23.5c0-2.209-1.791-4-4-4s-4,1.791-4,4V50c0,2.209,1.791,4,4,4h18.75c2.209,0,4-1.791,4-4S70.959,46,68.75,46   z"/>
</g>
</svg>