<?xml version="1.0" standalone="no"?>
<!DOCTYPE svg PUBLIC "-//W3C//DTD SVG 1.1//EN" "http://www.w3.org/Graphics/SVG/1.1/DTD/svg11.dtd" >
<svg xmlns="http://www.w3.org/2000/svg">
<metadata></metadata>
<defs>
<font id="interdimensionalregular" horiz-adv-x="2764" >
<font-face units-per-em="2048" ascent="1638" descent="-410" />
<missing-glyph horiz-adv-x="2150" />
<glyph horiz-adv-x="2048" />
<glyph horiz-adv-x="2048" />
<glyph unicode="&#xd;" horiz-adv-x="2150" />
<glyph unicode=" "  horiz-adv-x="2150" />
<glyph unicode="&#x09;" horiz-adv-x="2150" />
<glyph unicode="&#xa0;" horiz-adv-x="2150" />
<glyph unicode="!" horiz-adv-x="307" d="M49 16h105h-105zM49 16v105h105v-105h-105zM49 307v1321h105v-1321h-105zM49 1628z" />
<glyph unicode="&#x22;" horiz-adv-x="792" d="M49 1128l256 500h105l-256 -500h-105zM274 1128l256 500h105l-256 -500h-105z" />
<glyph unicode="#" horiz-adv-x="1433" d="M49 561v105h340v-105h-340zM49 971v104h340v-104h-340zM389 16v545h105v-545h-105zM389 561v105h105v-105h-105zM389 666v305h105v-305h-105zM389 971v104h105v-104h-105zM389 1075v553h105v-553h-105zM494 561v105h409v-105h-409zM494 971v104h409v-104h-409zM903 16 v545h105v-545h-105zM903 561v105h105v-105h-105zM903 666v305h105v-305h-105zM903 971v104h105v-104h-105zM903 1075v553h105v-553h-105zM1008 561v105h272v-105h-272zM1008 971v104h272v-104h-272z" />
<glyph unicode="$" horiz-adv-x="2998" d="M49 16v105h326h166q299 12 551 295v1212h104v-1085q74 100 205 305q139 217 207 309v471h104v-338q289 338 641 338h492v-104h-492q-193 0 -358 -121q-138 -96 -283 -297v-1090h-104v938q-98 -156 -199 -309q-117 -178 -213 -289v-340h-104v232q-248 -231 -551 -232h-492 z" />
<glyph unicode="%" d="M49 16v105l2509 1507v-104zM51 1278q0 137 148 219q123 68 272 68q150 0 270 -68q150 -82 150 -219q0 -147 -152 -225q-116 -60 -268 -60t-268 60q-152 78 -152 225zM139 1278q0 -109 121 -170q96 -49 211 -49q113 0 211 49q121 61 121 170q0 104 -121 168 q-98 53 -211 53t-211 -53q-121 -63 -121 -168zM1753 305q0 139 148 221q123 68 272 68q150 0 272 -68q147 -82 148 -221q0 -147 -152 -223q-116 -62 -268 -62t-268 62q-152 76 -152 223zM1841 305q0 -106 121 -168q96 -49 211 -49t211 49q121 61 121 168q0 104 -121 168 q-98 53 -211 53t-211 -53q-121 -63 -121 -168z" />
<glyph unicode="&#x26;" d="M49 535q0 406 961 421q-193 270 -193 369q0 164 189 244q137 59 325 59q176 0 314 -37q215 -59 215 -192q0 -33 -17 -60h-78q16 27 17 54q0 100 -191 141q-111 25 -260 25q-150 0 -266 -43q-162 -59 -162 -187q0 -113 236 -409q178 -225 329 -371q172 -164 322 -266 q168 96 166 252h86q0 -193 -166 -306q135 -78 229 -77q274 0 392 145q43 51 43 98h77q0 -53 -32 -114q-115 -215 -480 -215q-137 0 -321 114q-252 -115 -740 -114q-356 0 -604 73q-391 119 -391 396zM49 535h84h-84zM49 535h84h-84zM133 535q0 -70 51 -138 q186 -246 860 -245q420 0 652 88q-324 233 -633 645q-311 -2 -539 -54q-391 -88 -391 -296zM819 1339h84h-84zM819 1339h84h-84z" />
<glyph unicode="'" horiz-adv-x="561" d="M49 1128l256 500h105l-256 -500h-105z" />
<glyph unicode="(" horiz-adv-x="663" d="M49 819q0 504 291 713q98 70 172 72v-105q-47 -2 -113 -49q-137 -100 -206 -283q-59 -158 -60 -348q0 -178 62 -336q68 -174 194 -276q66 -53 111 -55v-105q-53 2 -133 51q-166 106 -248 318q-70 178 -70 403z" />
<glyph unicode=")" horiz-adv-x="663" d="M49 1499v105q74 -2 172 -72q291 -209 291 -713q0 -225 -70 -403q-82 -211 -247 -318q-80 -49 -134 -51v105q45 2 111 55q127 102 195 276q61 158 61 336q0 190 -59 348q-70 182 -207 283q-66 47 -113 49z" />
<glyph unicode="*" horiz-adv-x="909" d="M49 1128l303 250l-303 250h105l198 -164v164h105v-164l196 164h105l-301 -250l303 -250h-105l-198 164v-164h-105v164l-198 -164h-105z" />
<glyph unicode="+" horiz-adv-x="825" d="M49 819v105h260v258h105v-258h258v-105h-258v-260h-105v260h-260z" />
<glyph unicode="," horiz-adv-x="561" d="M49 -326l256 500h105l-256 -500h-105z" />
<glyph unicode="-" horiz-adv-x="700" d="M49 819v105h500v-105h-500zM49 819h500v105h-500v-105zM49 819h500v105h-500v-105z" />
<glyph unicode="." horiz-adv-x="409" d="M49 16v205h205v-205h-205z" />
<glyph unicode="/" d="M49 16v105l2509 1507v-104z" />
<glyph unicode="0" d="M70 819q0 389 446 619q369 190 815 190t815 -190q446 -229 447 -619q0 -414 -455 -633q-352 -170 -807 -170t-807 170q-455 219 -454 633zM178 819q0 -354 422 -557q336 -162 731 -162t731 162q422 203 422 557q0 344 -420 553q-344 172 -733 172t-733 -172 q-420 -209 -420 -553z" />
<glyph unicode="1" horiz-adv-x="792" d="M299 1286v105l342 237v-1612h-104v1436zM641 16z" />
<glyph unicode="2" d="M104 18v95q0 201 162 356q301 289 1065 289q674 0 938 114q184 80 185 232q0 147 -250 268q-315 152 -873 152q-342 0 -624 -90q-225 -70 -373 -183q-125 -92 -125 -147h-105q0 63 109 170q141 137 381 223q311 111 737 111q662 0 991 -193q236 -139 236 -311 q0 -209 -254 -311q-295 -119 -971 -119t-960 -248q-164 -143 -164 -313h2349v-95h-2454zM2454 1096h104h-104zM2454 1104h104h-104z" />
<glyph unicode="3" d="M49 1524v104h2509v-104l-735 -359q735 -121 735 -551q0 -104 -94 -223q-125 -160 -367 -254q-307 -121 -766 -121q-424 0 -737 136q-238 102 -381 268q-109 125 -109 194h105q0 -57 125 -172q150 -139 373 -227q285 -115 624 -115q381 0 660 99q227 80 356 213 q106 111 107 202q0 158 -146 267q-217 160 -772 245l795 398h-2282zM1536 1126z" />
<glyph unicode="4" d="M49 563v105l2204 960h104v-960h201v-105h-201v-547h-104v547h-2204zM244 668h2009v856z" />
<glyph unicode="5" d="M49 16v101h1409q379 0 658 96q369 127 368 381q0 248 -483 358q-309 72 -670 72h-1282v604h2507v-104h-2402v-396h1177q438 0 748 -77q522 -131 522 -457q0 -330 -449 -477q-299 -100 -694 -101h-1409zM1331 1024v104v-104zM1331 1024zM1331 1128zM1456 16l2 101z M1458 16v101v-101zM2556 1524v104v-104zM2556 1524v104v-104z" />
<glyph unicode="6" d="M49 799q0 422 449 649q358 180 823 180q299 0 565 -53q354 -72 514 -217q78 -72 78 -141h-131q-2 47 -86 106q-287 201 -940 201q-401 0 -733 -162q-414 -203 -414 -563q0 -88 31 -168q131 225 497 354q303 106 619 107q301 0 559 -64q330 -82 494 -252 q104 -111 104 -223q0 -111 -94 -215q-158 -178 -496 -260q-256 -61 -567 -62q-465 0 -815 162q-457 209 -457 621zM272 508q150 -201 478 -303q268 -84 571 -84q217 0 419 39t374 121q246 121 245 272q0 223 -432 346q-309 88 -606 88q-186 0 -381 -43q-209 -47 -399 -145 q-266 -139 -269 -291z" />
<glyph unicode="7" d="M49 16v138l2306 1370h-2306v104h2509v-104z" />
<glyph unicode="8" d="M104 535q2 172 189 294q307 199 1038 199q-324 0 -491 117q-123 88 -123 190q0 100 119 181q164 109 495 108q338 0 502 -111q113 -78 113 -178t-113 -184q-166 -123 -502 -123q1227 0 1227 -493q0 -518 -1227 -519q-723 0 -1028 197q-201 129 -199 322zM104 535h105 h-105zM209 535q0 -166 223 -281q295 -154 899 -154q653 0 932 156q190 109 191 279q0 158 -185 258q-276 151 -938 151q-621 0 -915 -158q-207 -111 -207 -251zM717 1335h71h-71zM788 1335q0 -80 127 -153q158 -90 416 -90q272 0 422 92q115 70 115 151q0 84 -107 142 q-141 77 -430 77q-281 0 -426 -73q-117 -59 -117 -146z" />
<glyph unicode="9" d="M70 694h86q0 -272 462 -450q373 -143 713 -144q197 0 443 70q299 84 479 229q225 178 225 420q0 135 -41 217q0 -96 -391 -204.5t-715 -108.5t-659 88q-477 123 -477 354q0 238 471 359q326 84 665 84q526 0 862 -195q369 -215 369 -594q0 -262 -225 -461 q-186 -164 -498 -260q-266 -82 -508 -82q-391 0 -780 162q-481 199 -481 516zM281 1165q0 -168 405 -268q319 -80 645 -80q322 0 694 152q180 78 361 157q-94 180 -412 293q-297 104 -643 105q-266 0 -602 -80q-449 -109 -448 -279z" />
<glyph unicode=":" horiz-adv-x="397" d="M49 410v204h205v-204h-205zM49 1024v205h205v-205h-205z" />
<glyph unicode=";" horiz-adv-x="563" d="M100 115l256 499h105l-256 -499h-105zM272 1024v137h138v-137h-138z" />
<glyph unicode="&#x3c;" horiz-adv-x="784" d="M47 768v104l592 410v-104l-516 -359l516 -362v-105z" />
<glyph unicode="=" horiz-adv-x="1280" d="M49 410v204h1077v-204h-1077zM49 1024v205h1077v-205h-1077z" />
<glyph unicode="&#x3e;" horiz-adv-x="784" d="M49 352v105l516 362l-516 359v104l592 -410v-104z" />
<glyph unicode="?" d="M49 1110q-6 518 1227 518q432 0 731 -76q496 -127 496 -442q0 -297 -447 -428q-274 -80 -674 -88v-371h-106v453q844 0 1067 285q55 72 55 149q0 78 -55 150q-223 285 -1067 284q-395 0 -660 -59q-465 -104 -462 -375h-105zM49 1110h105h-105zM1276 16v105h104v-105h-104 zM1276 592v84v-84z" />
<glyph unicode="@" d="M49 899q0 145 88 289q268 440 1139 440q350 0 620 -69q367 -94 527 -308q80 -104 80 -200q0 -260 -217 -435v-30v-80q-2 -59 -2 -78h-105l2 119q-244 -139 -905 -139q-631 0 -819 266q-63 88 -64 186q0 264 334 377q221 76 549 76q408 0 631 -90q328 -129 368 -465 q123 139 123 293q0 86 -78 178q-270 315 -1044 315q-793 0 -1040 -379q-82 -125 -82 -266q0 -231 69 -379q199 -408 1053 -407q760 0 1055 215q53 39 172 182v-104q0 -47 -64 -111q-283 -279 -1163 -279q-961 0 -1165 504q-61 150 -62 379zM49 899h105h-105zM498 860 q0 -215 305 -307q199 -61 473 -61q666 0 903 178q-16 338 -305 469q-201 90 -598 90q-778 0 -778 -369zM1276 408v84v-84zM2398 1051h105h-105z" />
<glyph unicode="A" horiz-adv-x="2766" d="M14 16l1317 1612l1282 -1612h-104l-809 1008h-735l-811 -1008h-140zM1049 1128h567l-285 355z" />
<glyph unicode="B" d="M49 16v1612h973q147 0 235 -90q78 -82 78 -201q0 -121 -80 -209h76q438 0 748 -77q522 -131 522 -457q0 -330 -449 -479q-301 -98 -696 -99h-1407zM49 1628zM49 1628zM154 117h1304q379 0 658 96q368 127 368 380q0 249 -483 359q-309 72 -670 72h-1177v-907zM154 1128 h841q109 0 172 66q57 57 58 139q0 78 -53.5 134.5t-149.5 56.5h-868v-396zM1331 1024zM1331 1024v104v-104zM1331 1024v104v-104zM1331 1128zM1456 16l2 101zM1458 16v101v-101zM1458 16v101v-101z" />
<glyph unicode="C" d="M516 1438q369 190 815 190v-84q-389 0 -733 -172q-420 -209 -420 -553q0 -354 422 -557q336 -162 731 -162v-84q-455 0 -807 170q-454 219 -454 631q0 391 446 621zM1331 16v84q340 0 625 115q223 88 373 227q125 115 125 172h104q0 -70 -109 -194q-143 -166 -381 -268 q-313 -135 -737 -136zM1331 1544v84q424 0 735 -137q238 -104 383 -270q109 -127 109 -197h-104q0 61 -123 176q-150 141 -373 230q-285 114 -627 114z" />
<glyph unicode="D" d="M49 16v1612h1409q313 0 565 -110q285 -125 433 -371q100 -166 100 -328q0 -164 -102 -330q-150 -240 -435 -364q-252 -109 -563 -109h-1407zM49 1628zM49 1628zM154 117h1302q274 0 500 98q248 109 391 320q104 152 104 284q0 156 -102 309q-135 205 -393 308 q-221 88 -498 88h-1304v-1407zM1456 16v101v-101zM1458 1524v104v-104z" />
<glyph unicode="E" d="M49 16v1612h975v-104h-870v-396h1177v-104h-1177v-907h2457v-101h-2562z" />
<glyph unicode="F" d="M49 16v1612h2509v-104h-2404v-396h1177v-104h-1177v-1008h-105z" />
<glyph unicode="G" d="M516 1438q369 190 815 190q424 0 735 -137q238 -104 383 -270q109 -127 109 -197h-104q0 61 -123 176q-150 141 -373 230q-283 114 -621 114h-6q-389 0 -733 -172q-420 -209 -420 -553q0 -354 422 -557q336 -162 731 -162q387 0 701 146q236 111 362 264h-1063v104h1227 v-430h-104v242q-143 -168 -381 -272q-313 -137 -742 -138q-455 0 -807 170q-454 219 -454 631q0 391 446 621z" />
<glyph unicode="H" d="M49 16v1612h105v-500h2300v500h104v-1612h-104v1008h-2300v-1008h-105z" />
<glyph unicode="I" horiz-adv-x="307" d="M49 16v1612h105v-1612h-105z" />
<glyph unicode="J" d="M104 614h105q4 -51 90 -141q184 -186 479 -285q262 -88 553 -88q311 0 570 72q334 92 485 285q68 86 68 157v910h-2128v104h2232v-1014q0 -90 -72 -192q-156 -227 -526 -330q-272 -76 -629 -76q-338 0 -614 90q-334 106 -518 330q-90 111 -95 178z" />
<glyph unicode="K" horiz-adv-x="2762" d="M49 16v1612h105v-530l2404 530v-125l-2165 -479l2185 -883v-125l-2424 977v-977h-105z" />
<glyph unicode="L" d="M49 16v1612h105v-1507h2474v-105h-2579z" />
<glyph unicode="M" d="M49 16l592 1614h104l588 -502l588 502h104l592 -1614h-104l-567 1543l-613 -535l-612 535l-567 -1543h-105zM745 1630zM1921 1630z" />
<glyph unicode="N" d="M49 16v1612h105l2300 -1522v1522h104v-1612h-104l-2300 1522v-1522h-105z" />
<glyph unicode="O" d="M524 1442q369 186 807 186t807 -186q455 -227 455 -623q0 -412 -449 -631q-354 -172 -813 -172t-813 172q-448 219 -448 629q0 397 454 625zM178 819q0 -352 420 -557q336 -162 733 -162t733 162q420 205 420 557q0 346 -422 555q-344 170 -731 170t-731 -170 q-422 -209 -422 -555z" />
<glyph unicode="P" d="M49 16v1612h2169q137 0 236 -78q104 -84 104 -213q0 -141 -98.5 -227t-241.5 -86h-2064v-1008h-105zM154 1128h2064q96 0 163.5 55.5t67.5 149.5q0 84 -70.5 137.5t-160.5 53.5h-2064v-396z" />
<glyph unicode="Q" d="M524 1442q369 186 807 186t807 -186q455 -227 455 -623q0 -348 -326 -561l291 -92v-105l-408 132q-358 -176 -819 -177q-461 0 -813 172q-448 219 -448 629q0 397 454 625zM178 819q0 -352 420 -557q336 -162 733 -162q354 0 676 138l-729 233v104l858 -274 q348 197 348 518q0 346 -422 555q-344 170 -731 170t-731 -170q-422 -209 -422 -555z" />
<glyph unicode="R" d="M49 16v1612h2169q137 0 236 -78q104 -84 104 -213q0 -141 -98.5 -227t-241.5 -86h-1194l1534 -1008h-170l-1534 1008h-700v-1008h-105zM154 1128h2064q96 0 163.5 55.5t67.5 149.5q0 84 -70.5 137.5t-160.5 53.5h-2064v-396z" />
<glyph unicode="S" horiz-adv-x="2998" d="M49 16v105h492q330 2 628 393q252 362 502 725q315 389 682 389h492v-104h-492q-328 0 -620 -391q-248 -362 -494 -725q-315 -391 -698 -392h-492zM2845 1524z" />
<glyph unicode="T" d="M49 1524v104h2509v-104h-1174v-1508h-104v1508h-1231z" />
<glyph unicode="U" d="M104 614v1014h105v-1014q0 -72 67 -157q152 -193 486 -285q258 -72 569 -72t570 72q334 92 485 285q68 86 68 157v1014h104v-1014q0 -96 -82 -206q-289 -391 -1145 -392q-856 0 -1145 392q-82 111 -82 206zM1331 16v84v-84zM1331 16v84v-84z" />
<glyph unicode="V" d="M49 1628h146l1136 -1425l1082 1425h145l-1227 -1612z" />
<glyph unicode="W" d="M49 1628l592 -1612h104l588 500l588 -500h104l592 1612h-104l-567 -1542l-613 535l-612 -535l-567 1542h-105zM745 16zM1921 16z" />
<glyph unicode="X" d="M49 16l1172 807l-1172 805h166l1090 -749l1087 749h166l-1172 -805l1172 -807h-166l-1087 750l-1090 -750h-166z" />
<glyph unicode="Y" d="M49 1503v125l1231 -479h104q319 129 1174 479v-125l-1174 -479v-1008h-104v1008z" />
<glyph unicode="Z" d="M49 1524v104h2509v-104l-2282 -1403h2296v-105h-2509v105l2280 1403h-2294z" />
<glyph unicode="[" horiz-adv-x="792" d="M49 16v1612h592v-104h-487v-1403h487v-105h-592z" />
<glyph unicode="\" d="M49 1524l2509 -1508v105l-2509 1507v-104z" />
<glyph unicode="]" horiz-adv-x="792" d="M49 16v105h488v1403h-488v104h592v-1612h-592z" />
<glyph unicode="^" horiz-adv-x="1126" d="M49 1128l256 500h105l256 -500h-105l-203 398l-204 -398h-105z" />
<glyph unicode="_" horiz-adv-x="1331" d="M49 -16h1127v-88h-1127v88z" />
<glyph unicode="`" horiz-adv-x="561" d="M51 1628l256 -500h105l-256 500h-105z" />
<glyph unicode="a" d="M14 16l1317 1612l1282 -1612h-104l-809 1008h-735l-811 -1008h-140zM1049 1128h567l-285 355z" />
<glyph unicode="b" d="M49 16v1612h973q147 0 235 -90q78 -82 78 -201q0 -121 -80 -209h76q438 0 748 -77q522 -131 522 -457q0 -330 -449 -479q-301 -98 -696 -99h-1407zM49 1628zM49 1628zM154 117h1304q379 0 658 96q368 127 368 380q0 249 -483 359q-309 72 -670 72h-1177v-907zM154 1128 h841q109 0 172 66q57 57 58 139q0 78 -53.5 134.5t-149.5 56.5h-868v-396zM1331 1024zM1331 1024v104v-104zM1331 1024v104v-104zM1331 1128zM1456 16l2 101zM1458 16v101v-101zM1458 16v101v-101z" />
<glyph unicode="c" d="M516 1438q369 190 815 190v-84q-389 0 -733 -172q-420 -209 -420 -553q0 -354 422 -557q336 -162 731 -162v-84q-455 0 -807 170q-454 219 -454 631q0 391 446 621zM1331 16v84q340 0 625 115q223 88 373 227q125 115 125 172h104q0 -70 -109 -194q-143 -166 -381 -268 q-313 -135 -737 -136zM1331 1544v84q424 0 735 -137q238 -104 383 -270q109 -127 109 -197h-104q0 61 -123 176q-150 141 -373 230q-285 114 -627 114z" />
<glyph unicode="d" d="M49 16v1612h1409q313 0 565 -110q285 -125 433 -371q100 -166 100 -328q0 -164 -102 -330q-150 -240 -435 -364q-252 -109 -563 -109h-1407zM49 1628zM49 1628zM154 117h1302q274 0 500 98q248 109 391 320q104 152 104 284q0 156 -102 309q-135 205 -393 308 q-221 88 -498 88h-1304v-1407zM1456 16v101v-101zM1458 1524v104v-104z" />
<glyph unicode="e" d="M49 16v1612h975v-104h-870v-396h1177v-104h-1177v-907h2457v-101h-2562z" />
<glyph unicode="f" d="M49 16v1612h2509v-104h-2404v-396h1177v-104h-1177v-1008h-105z" />
<glyph unicode="g" d="M516 1438q369 190 815 190q424 0 735 -137q238 -104 383 -270q109 -127 109 -197h-104q0 61 -123 176q-150 141 -373 230q-283 114 -621 114h-6q-389 0 -733 -172q-420 -209 -420 -553q0 -354 422 -557q336 -162 731 -162q387 0 701 146q236 111 362 264h-1063v104h1227 v-430h-104v242q-143 -168 -381 -272q-313 -137 -742 -138q-455 0 -807 170q-454 219 -454 631q0 391 446 621z" />
<glyph unicode="h" d="M49 16v1612h105v-500h2300v500h104v-1612h-104v1008h-2300v-1008h-105z" />
<glyph unicode="i" horiz-adv-x="307" d="M49 16v1612h105v-1612h-105z" />
<glyph unicode="j" d="M104 614h105q12 -59 90 -141q180 -186 477 -285q264 -88 555 -88q313 0 572 72q334 92 483 285q68 88 68 157v1014h104v-1014q0 -86 -72 -192q-152 -225 -522 -330q-276 -76 -633 -76q-338 0 -616 90q-334 109 -516 330q-84 104 -95 178z" />
<glyph unicode="k" horiz-adv-x="2762" d="M49 16v1612h105v-530l2404 530v-125l-2165 -479l2185 -883v-125l-2424 977v-977h-105z" />
<glyph unicode="l" d="M49 16v1612h105v-1507h2474v-105h-2579z" />
<glyph unicode="m" d="M49 16l592 1614h104l588 -502l588 502h104l592 -1614h-104l-567 1543l-613 -535l-612 535l-567 -1543h-105zM745 1630zM1921 1630z" />
<glyph unicode="n" d="M49 16v1612h105l2300 -1522v1522h104v-1612h-104l-2300 1522v-1522h-105z" />
<glyph unicode="o" d="M524 1442q369 186 807 186t807 -186q455 -227 455 -623q0 -412 -449 -631q-354 -172 -813 -172t-813 172q-448 219 -448 629q0 397 454 625zM178 819q0 -352 420 -557q336 -162 733 -162t733 162q420 205 420 557q0 346 -422 555q-344 170 -731 170t-731 -170 q-422 -209 -422 -555z" />
<glyph unicode="p" d="M49 16v1612h2169q137 0 236 -78q104 -84 104 -213q0 -141 -98.5 -227t-241.5 -86h-2064v-1008h-105zM154 1128h2064q96 0 163.5 55.5t67.5 149.5q0 84 -70.5 137.5t-160.5 53.5h-2064v-396z" />
<glyph unicode="q" d="M524 1442q369 186 807 186t807 -186q455 -227 455 -623q0 -348 -326 -561l291 -92v-105l-408 132q-358 -176 -819 -177q-461 0 -813 172q-448 219 -448 629q0 397 454 625zM178 819q0 -352 420 -557q336 -162 733 -162q354 0 676 138l-729 233v104l858 -274 q348 197 348 518q0 346 -422 555q-344 170 -731 170t-731 -170q-422 -209 -422 -555z" />
<glyph unicode="r" d="M49 16v1612h2169q137 0 236 -78q104 -84 104 -213q0 -141 -98.5 -227t-241.5 -86h-1194l1534 -1008h-170l-1534 1008h-700v-1008h-105zM154 1128h2064q96 0 163.5 55.5t67.5 149.5q0 84 -70.5 137.5t-160.5 53.5h-2064v-396z" />
<glyph unicode="s" horiz-adv-x="2998" d="M49 16v105h492q330 2 628 393q252 362 502 725q315 389 682 389h492v-104h-492q-328 0 -620 -391q-248 -362 -494 -725q-315 -391 -698 -392h-492zM2845 1524z" />
<glyph unicode="t" d="M49 1524v104h2509v-104h-1174v-1508h-104v1508h-1231z" />
<glyph unicode="u" d="M104 614v1014h105v-1014q0 -72 67 -157q152 -193 486 -285q258 -72 569 -72t570 72q334 92 485 285q68 86 68 157v1014h104v-1014q0 -96 -82 -206q-289 -391 -1145 -392q-856 0 -1145 392q-82 111 -82 206zM1331 16v84v-84zM1331 16v84v-84z" />
<glyph unicode="v" d="M49 1628h146l1136 -1425l1082 1425h145l-1227 -1612z" />
<glyph unicode="w" d="M49 1628l592 -1612h104l588 500l588 -500h104l592 1612h-104l-567 -1542l-613 535l-612 -535l-567 1542h-105zM745 16zM1921 16z" />
<glyph unicode="x" d="M49 16l1172 807l-1172 805h166l1090 -749l1087 749h166l-1172 -805l1172 -807h-166l-1087 750l-1090 -750h-166z" />
<glyph unicode="y" d="M49 1503v125l1231 -479h104q319 129 1174 479v-125l-1174 -479v-1008h-104v1008z" />
<glyph unicode="z" d="M49 1524v104h2509v-104l-2282 -1403h2296v-105h-2509v105l2280 1403h-2294z" />
<glyph unicode="{" horiz-adv-x="663" d="M49 819q2 43 39 108.5t41 96.5q2 72 18 215q33 154 119 252q100 113 246 113v-105q-166 0 -240 -166q-55 -121 -55 -309q0 -12 -41 -86t-43 -119h-84zM49 819h84q0 -39 43 -105.5t43 -99.5h-90q0 31 -40 98.5t-40 106.5zM129 614h90q0 -297 168 -417q59 -45 113 -45v-105 q-59 0 -140 55q-231 158 -231 512z" />
<glyph unicode="|" horiz-adv-x="307" d="M49 16v1612h105v-1612h-105z" />
<glyph unicode="}" horiz-adv-x="663" d="M37 1499v105q145 0 246 -113q86 -98 118 -252q2 -14 19 -215q4 -31 41 -96.5t39 -108.5h-84q-2 45 -43 119t-41 86q0 188 -56 309q-74 166 -239 166zM49 47q59 0 139 55q231 158 232 512h-90q0 -297 -168 -417q-59 -45 -113 -45v-105zM330 614h90q0 31 40 98.5t40 106.5 h-84q0 -39 -43 -105.5t-43 -99.5z" />
<glyph unicode="~" horiz-adv-x="2150" d="M49 1421v105l340 92v-105zM389 1513v105l340 -125v-104zM389 1513l340 -124zM389 1618l340 -125zM729 1389v104l344 94v-104z" />
<glyph unicode="&#xa1;" horiz-adv-x="307" d="M49 16v1321h105v-1321h-105zM49 1524v104h105v-104h-105zM49 1628h105h-105z" />
<glyph unicode="&#xa2;" d="M772 827q0 166 180 267q141 78 328 92v319h102v-319q145 -6 293 -70q186 -78 203 -196h-47q-18 94 -189 163q-137 58 -260 66v-639q123 8 258 63q168 70 191 164h47q-16 -117 -203 -196q-147 -61 -293 -68v-352h-102v352q-195 12 -332 88q-176 96 -176 266zM821 827 q0 -145 164 -235q127 -68 295 -80v635q-166 -12 -295 -84q-164 -90 -164 -236z" />
<glyph unicode="&#xa3;" d="M49 16q375 336 492 754h-410v102h850v-102h-309q-53 -213 -127 -344q-78 -143 -242 -309h2325v-101h-2579zM565 870q88 356 269 535q205 203 559 203v-107q-309 0 -475 -174q-127 -137 -222 -457h-131zM1393 1501v107q160 0 288 -74q152 -88 152 -238h-102 q0 104 -123 162q-96 43 -215 43z" />
<glyph unicode="&#xa4;" horiz-adv-x="909" d="M49 524l158 131q-35 55 -35 121q0 63 33 119l-156 129h105l94 -78q66 61 155 62q90 0 156 -62l94 78h105l-156 -129q33 -55 33 -119q0 -66 -35 -121l158 -131h-105l-96 80q-66 -59 -154 -59t-153 59l-96 -80h-105zM49 1024zM49 1024zM49 1024z" />
<glyph unicode="&#xa5;" d="M49 1503v125l1231 -479h104l1174 479v-125l-1174 -479h848v-102h-848v-185h848v-102h-848v-619h-104v619h-850v102h850v185h-850v102h850z" />
<glyph unicode="&#xa6;" horiz-adv-x="307" d="M49 16h105h-105zM49 16v701h105v-701h-105zM49 922v706h105v-706h-105z" />
<glyph unicode="&#xa7;" d="M889 342h102q0 -106 121 -162q92 -43 215 -43v-106q-164 0 -289 71q-150 86 -149 240zM889 342h102q0 -106 121 -162q92 -43 215 -43v-106q-164 0 -289 71q-150 86 -149 240zM936 1393q0 -96 154 -252q139 -127 280 -256q152 -139 152 -201q0 -80 -201 -80l68 -65 q258 0 258 98q0 72 -154 217q-141 131 -285 260q-152 154 -151 238q0 111 235 141v106q-356 -53 -356 -206zM936 1393q0 -96 154 -252q139 -127 280 -256q152 -139 152 -201q0 -80 -201 -80l68 -65q258 0 258 98q0 72 -154 217q-141 131 -285 260q-152 154 -151 238 q0 111 235 141v106q-356 -53 -356 -206zM936 1393q0 -96 154 -252q139 -127 280 -256q152 -139 152 -201q0 -80 -201 -80l68 -65q258 0 258 98q0 72 -154 217q-141 131 -285 260q-152 154 -151 238q0 111 235 141v106q-356 -53 -356 -206zM940 950q0 106 330 107l71 -64 q-258 0 -258 -90q0 -68 144 -209l266 -258q143 -150 143 -239q0 -133 -309 -166v106q59 6 121 10q72 14 72 68q0 78 -150 236q-141 135 -280 272q-150 154 -150 227zM1180 1055l90 2l71 -64l-90 -2zM1212 604h109l68 -65h-109zM1212 604h109l68 -65h-109zM1212 604h109 l68 -65h-109zM1292 1493v106q160 0 289 -73q152 -88 152 -238h-103q0 104 -123 162q-96 43 -215 43zM1292 1493v106q160 0 289 -73q152 -88 152 -238h-103q0 104 -123 162q-96 43 -215 43zM1292 1493v106q160 0 289 -73q152 -88 152 -238h-103q0 104 -123 162 q-96 43 -215 43zM1327 31l309 166q0 -133 -309 -166zM1327 137z" />
<glyph unicode="&#xa8;" d="M1092 1638v138h137v-138h-137zM1434 1638v138h137v-138h-137z" />
<glyph unicode="&#xa9;" d="M309 801q0 319 369 506q299 152 655 151q354 0 654 -151q371 -186 370 -506q0 -334 -364 -512q-287 -139 -660 -139t-659 139q-365 178 -365 512zM397 801q0 -287 340 -451q274 -133 596 -133t596 133q340 164 340 451q0 281 -344 450q-279 138 -592 138t-594 -138 q-342 -170 -342 -450zM688 807q0 195 225 311q185 96 412 96v-43q-197 0 -371 -86q-211 -106 -211 -278q0 -180 211 -283q170 -80 371 -80v-43q-229 0 -407 86q-229 111 -230 320zM1325 401v43q170 0 313 58q113 43 189 114q63 57 63 86h52q0 -35 -54 -98q-74 -82 -192 -135 q-158 -68 -371 -68zM1325 1171v43q213 0 371 -69q119 -53 192 -137q53 -63 54 -99h-52q0 31 -63 88q-76 72 -187 117q-143 57 -315 57z" />
<glyph unicode="&#xaa;" horiz-adv-x="1669" d="M49 1159q0 229 264 361q213 109 467 108q254 0 467 -108q264 -131 264 -361q0 -229 -239 -356q-190 -100 -453 -109v-284h379v-82h-379v-277h-82v277h-375v82h375v284q-262 10 -450 111q-238 127 -238 354zM111 1159q0 -205 243 -323q197 -94 426 -95q229 0 426 95 q244 119 244 323q0 201 -246 322q-201 98 -424 98t-424 -98q-246 -121 -245 -322z" />
<glyph unicode="&#xab;" horiz-adv-x="1097" d="M49 768v104l592 410v-104l-516 -359l516 -362v-105zM350 768v104l592 410v-104l-516 -359l516 -362v-105z" />
<glyph unicode="&#xac;" horiz-adv-x="700" d="M49 819v105h500v-295h-98v190h-402z" />
<glyph unicode="&#xad;" horiz-adv-x="700" d="M49 819v105h500v-105h-500zM49 819h500v105h-500v-105zM49 819h500v105h-500v-105z" />
<glyph unicode="&#xae;" d="M309 801q0 319 369 506q299 152 655 151q354 0 654 -151q371 -186 370 -506q0 -334 -364 -512q-287 -139 -660 -139t-659 139q-365 178 -365 512zM397 801q0 -287 340 -451q274 -133 596 -133t596 133q340 164 340 451q0 281 -344 450q-279 138 -592 138t-594 -138 q-342 -170 -342 -450zM764 424v741h1010q61 0 102 -36.5t41 -96.5q0 -66 -45 -105.5t-111 -39.5h-549l705 -463h-68l-706 463h-332v-463h-47zM811 936h950q45 0 76 25.5t31 68.5q0 88 -94 88h-963v-182z" />
<glyph unicode="&#xaf;" horiz-adv-x="1331" d="M49 1350v88h1127v-88h-1127z" />
<glyph unicode="&#xb0;" horiz-adv-x="598" d="M49 1446q0 88 70 141q57 43 129 43q70 0 127 -43q70 -53 69 -141q0 -94 -69 -143q-55 -39 -127 -39t-127 39q-72 49 -72 143zM90 1446q0 -70 57 -109q45 -31 101 -30q53 0 98 30q57 39 57 109q0 68 -57 108q-45 33 -98 33t-101 -33q-57 -41 -57 -108z" />
<glyph unicode="&#xb1;" horiz-adv-x="909" d="M49 410v104h705v-104h-705zM49 410h705v104h-705v-104zM49 410h705v104h-705v-104zM70 901v105h280v278h105v-278h278v-105h-278v-280h-105v280h-280z" />
<glyph unicode="&#xb2;" d="M49 1235v25q0 49 41 86q74 72 262 71q279 0 279 86q0 37 -64 68q-78 37 -215 37q-121 0 -209 -43q-68 -35 -67 -62h-27q0 31 64 72q90 53 239 53q164 0 246 -47q57 -35 57 -78q0 -106 -303 -106q-166 0 -235 -62q-41 -34 -41 -75h579v-25h-606zM631 1501h24h-24z M631 1503h24h-24z" />
<glyph unicode="&#xb3;" d="M49 1599v29h694v-29l-202 -100q203 -33 202 -151q0 -51 -65 -99q-92 -68 -275 -67q-166 0 -266 73q-74 53 -74 93h31q0 -31 76 -80q98 -61 233 -62q152 0 242 54q70 43 70 88q0 102 -254 141l219 110h-631zM461 1489z" />
<glyph unicode="&#xb4;" horiz-adv-x="563" d="M49 1638l256 500h105l-256 -500h-105z" />
<glyph unicode="&#xb5;" d="M49 -150v1489h64v-622q0 -45 43 -99q170 -219 649 -219t649 219q43 53 43 99v622h64v-622q0 -170 79 -293q94 -143 254 -143v-68q-164 0 -266 111q-92 98 -121 260q-176 -236 -702 -236q-508 0 -692 221v-719h-64zM805 348v51v-51zM805 348v51v-51z" />
<glyph unicode="&#xb6;" horiz-adv-x="2998" d="M645 1270q0 217 195 303q135 57 397 57h111q70 -2 96 -2l-248 -106v-1506h-109v895q-188 0 -307 84q-135 94 -135 275zM1087 1628h715v-106h-254v-1506h-104v1506h-248z" />
<glyph unicode="&#xb7;" horiz-adv-x="673" d="M147 809q0 47 34 81t83 34q47 0 82 -34t35 -81q0 -49 -35 -83t-82 -34q-49 0 -83 34t-34 83z" />
<glyph unicode="&#xb8;" horiz-adv-x="2150" d="M135 444l336 242q442 57 637 57q135 0 244 -16l164 127l-29 119l69 -82l99 -19l22 -55l138 -41l-7 -12l-125 -31l121 -39v-24l-106 20q-33 -20 -80 -20t-102 20q-96 -76 -293 -233l-25 -326q45 -23 64 -59h-142v59l19 252l-146 -252q45 -23 64 -59h-142v59l189 326h-514 l-25 -326q45 -23 64 -59h-142v59l19 252l-146 -252q45 -23 64 -59h-141v59l188 326v170zM1655 872l10 -26zM1665 846l16 -41q-4 12 -16 41z" />
<glyph unicode="&#xb9;" d="M49 1509v37l117 82v-561h-35v500zM166 1067z" />
<glyph unicode="&#xba;" horiz-adv-x="1669" d="M49 485q0 -229 264 -360q213 -109 467 -109t467 109q264 131 264 360t-239 357q-190 100 -453 108l426 510l242 -403l31 76l-240 401l-76 33l-452 -109l-33 -76l452 109l-432 -541q-262 -10 -450 -110q-238 -127 -238 -355zM111 485q0 205 243 324q197 94 426 94t426 -94 q244 -119 244 -324q0 -201 -246 -321q-201 -98 -424 -98t-424 98q-246 121 -245 321z" />
<glyph unicode="&#xbb;" horiz-adv-x="1097" d="M49 352v105l516 362l-516 359v104l592 -410v-104zM350 352v105l516 362l-516 359v104l592 -410v-104z" />
<glyph unicode="&#xbc;" d="M49 16v105l2509 1507v-104zM559 1440v57l184 131v-889h-55v791zM743 739zM1300 291v53l1104 481h54v-481h100v-53h-100v-275h-54v275h-1104zM1399 344h1005v428z" />
<glyph unicode="&#xbd;" d="M49 16v105l2509 1507v-104zM559 1440v57l184 131v-889h-55v791zM743 739zM1374 18v45q0 96 78 173q145 139 514 139q543 0 543 166q0 72 -121 131q-152 72 -422 71q-236 0 -405 -84q-135 -68 -136 -118h-51q0 61 127 139q172 104 465 104q319 0 479 -92q115 -68 115 -151 q0 -100 -123 -150q-143 -57 -469 -57t-463 -119q-80 -70 -80 -152h1135v-45h-1186zM2509 539h51h-51zM2509 541h51h-51z" />
<glyph unicode="&#xbe;" d="M49 16v105l2509 1507v-104zM49 1575v53h1258v-53l-369 -178q369 -61 369 -277q0 -94 -119 -178q-168 -121 -496 -121q-213 0 -370 68q-119 51 -191 133q-53 63 -53 98h51q0 -29 61 -86q76 -70 189 -114q141 -57 313 -58q274 0 436 101q125 78 125 157q0 186 -458 256 l397 199h-1143zM795 1376zM1300 291v53l1104 481h54v-481h100v-53h-100v-275h-54v275h-1104zM1399 344h1005v428z" />
<glyph unicode="&#xbf;" d="M49 535q0 297 447 428q274 80 673 88v370h107v-452q-844 0 -1067 -285q-55 -72 -55 -149q0 -78 55 -150q223 -285 1067 -285q395 0 659 60q465 104 463 375h105q6 -518 -1227 -519q-432 0 -731 76q-496 127 -496 443zM1171 1524v104h105v-104h-105zM1276 969v84v-84z M2398 535h105h-105z" />
<glyph unicode="&#xc0;" d="M14 16l1317 1612l1282 -1612h-104l-809 1008h-735l-811 -1008h-140zM1049 1128h567l-285 355zM1176 2138h104l256 -500h-104z" />
<glyph unicode="&#xc1;" d="M14 16l1317 1612l1282 -1612h-104l-809 1008h-735l-811 -1008h-140zM1049 1128h567l-285 355zM1176 1638l256 500h104l-256 -500h-104z" />
<glyph unicode="&#xc2;" d="M14 16l1317 1612l1282 -1612h-104l-809 1008h-735l-811 -1008h-140zM1024 1638l256 500h104l256 -500h-104l-203 398l-205 -398h-104zM1049 1128h567l-285 355z" />
<glyph unicode="&#xc3;" d="M14 16l1317 1612l1282 -1612h-104l-809 1008h-735l-811 -1008h-140zM827 1671v105l340 92v-105zM1049 1128h567l-285 355zM1167 1763l340 -125zM1167 1763v105l340 -125v-105zM1167 1868l340 -125zM1507 1638v105l344 94v-104z" />
<glyph unicode="&#xc4;" d="M14 16l1317 1612l1282 -1612h-104l-809 1008h-735l-811 -1008h-140zM1049 1128h567l-285 355zM1092 1638v138h137v-138h-137zM1434 1638v138h137v-138h-137z" />
<glyph unicode="&#xc5;" d="M14 16l1317 1612l1282 -1612h-104l-809 1008h-735l-811 -1008h-140zM1049 1128h567l-285 355zM1133 1821q0 88 69 141q59 43 129 43t129 -43q70 -53 70 -141q0 -94 -72 -144q-55 -39 -127 -39t-127 39q-72 49 -71 144zM1174 1821q0 -70 57 -109q47 -31 100 -31t101 31 q57 39 57 109q0 68 -57 108q-48 33 -101 33t-100 -33q-57 -41 -57 -108z" />
<glyph unicode="&#xc6;" d="M49 16l1190 1612h451v-104h-342v-396h649v-104h-649v-907h1210v-101h-1319v1008h-342l-743 -1008h-105zM963 1128h276v396z" />
<glyph unicode="&#xc7;" d="M70 819q0 395 454 623q369 186 807 186q332 0 606 -88q326 -104 512 -319q96 -115 109 -197h-104q-12 61 -91 143q-178 188 -477 289q-264 88 -555 88q-387 0 -731 -170q-422 -209 -422 -555q0 -352 420 -557q336 -162 733 -162q285 0 545 84q291 94 471 275 q90 90 107 155h104q-10 -82 -109 -194q-180 -207 -493 -311q-262 -86 -584 -93l-123 2q-446 18 -766 189q-414 219 -413 612zM553 -303h106q-2 -106 119 -162q90 -41 213 -41q115 0 191 43q96 53 94 160h131q0 -152 -137 -238q-117 -72 -279 -71q-166 0 -289 71 q-149 86 -149 238zM553 -303h106q-2 -106 119 -162q90 -41 213 -41q115 0 191 43q96 53 94 160h131q0 -152 -137 -238q-117 -72 -279 -71q-166 0 -289 71q-149 86 -149 238zM553 -303h106q-2 -106 119 -162q90 -41 213 -41q115 0 191 43q96 53 94 160h131q0 -152 -137 -238 q-117 -72 -279 -71q-166 0 -289 71q-149 86 -149 238zM553 -303h106q-2 -106 119 -162q90 -41 213 -41q115 0 191 43q96 53 94 160h131q0 -152 -137 -238q-117 -72 -279 -71q-166 0 -289 71q-149 86 -149 238zM1200 -129q0 80 49 147l123 -2q-66 -68 -65 -139 q0 -84 100 -180h-131q-76 78 -76 174zM1200 -129q0 80 49 147l123 -2q-66 -68 -65 -139q0 -84 100 -180h-131q-76 78 -76 174zM1200 -129q0 80 49 147l123 -2q-66 -68 -65 -139q0 -84 100 -180h-131q-76 78 -76 174zM1200 -129q0 80 49 147l123 -2q-66 -68 -65 -139 q0 -84 100 -180h-131q-76 78 -76 174zM1249 18l123 -2z" />
<glyph unicode="&#xc8;" d="M49 16v1612h975v-104h-870v-396h1177v-104h-1177v-907h2457v-101h-2562zM1176 2138h104l256 -500h-104z" />
<glyph unicode="&#xc9;" d="M49 16v1612h975v-104h-870v-396h1177v-104h-1177v-907h2457v-101h-2562zM1176 1638l256 500h104l-256 -500h-104z" />
<glyph unicode="&#xca;" d="M49 16v1612h975v-104h-870v-396h1177v-104h-1177v-907h2457v-101h-2562zM1024 1638l256 500h104l256 -500h-104l-203 398l-205 -398h-104z" />
<glyph unicode="&#xcb;" d="M49 16v1612h975v-104h-870v-396h1177v-104h-1177v-907h2457v-101h-2562zM1092 1638v138h137v-138h-137zM1434 1638v138h137v-138h-137z" />
<glyph unicode="&#xcc;" horiz-adv-x="563" d="M49 2138h105l256 -500h-105zM176 16v1612h105v-1612h-105z" />
<glyph unicode="&#xcd;" horiz-adv-x="563" d="M49 1638l256 500h105l-256 -500h-105zM176 16v1612h105v-1612h-105z" />
<glyph unicode="&#xce;" horiz-adv-x="819" d="M51 1638l256 500h105l256 -500h-105l-203 398l-204 -398h-105zM305 16v1612h105v-1612h-105z" />
<glyph unicode="&#xcf;" horiz-adv-x="716" d="M49 1638v138h137v-138h-137zM254 16v1612h104v-1612h-104zM426 1638v138h137v-138h-137z" />
<glyph unicode="&#xd0;" d="M49 819v105h144v704h1265q311 0 565 -110q285 -127 433 -371q100 -166 100 -328q0 -164 -102 -330q-150 -240 -435 -364q-254 -109 -563 -109h-1263v803h-144zM193 819h104v105h-104v-105zM297 117h1159q272 0 500 98q250 111 391 320q104 154 104 284q0 156 -102 309 q-135 205 -393 308q-223 88 -498 88h-1161v-600h709v-105h-709v-702zM1456 16v101v-101zM1458 1524v104v-104z" />
<glyph unicode="&#xd1;" d="M49 16v1612h105l2300 -1542v1542h104v-1612h-104l-2300 1543v-1543h-105zM827 1671v105l340 92v-105zM1167 1763v105l340 -125v-105zM1167 1763l340 -125zM1167 1868l340 -125zM1507 1638v105l344 94v-104z" />
<glyph unicode="&#xd2;" d="M70 819q0 395 454 623q369 186 807 186t807 -186q455 -227 455 -623q0 -412 -449 -631q-354 -172 -813 -172t-813 172q-449 219 -448 631zM178 819q0 -352 420 -557q336 -162 733 -162t733 162q420 205 420 557q0 346 -422 555q-344 170 -731 170t-731 -170 q-422 -209 -422 -555zM1176 2138h104l256 -500h-104z" />
<glyph unicode="&#xd3;" d="M70 819q0 389 446 619q369 190 815 190t815 -190q446 -229 447 -619q0 -414 -455 -633q-352 -170 -807 -170t-807 170q-455 219 -454 633zM178 819q0 -354 422 -557q336 -162 731 -162t731 162q422 203 422 557q0 344 -420 553q-344 172 -733 172t-733 -172 q-420 -209 -420 -553zM1176 1638l256 500h104l-256 -500h-104z" />
<glyph unicode="&#xd4;" d="M70 819q0 389 446 619q369 190 815 190t815 -190q446 -229 447 -619q0 -414 -455 -633q-352 -170 -807 -170t-807 170q-455 219 -454 633zM178 819q0 -354 422 -557q336 -162 731 -162t731 162q422 203 422 557q0 344 -420 553q-344 172 -733 172t-733 -172 q-420 -209 -420 -553zM1024 1638l256 500h104l256 -500h-104l-203 398l-205 -398h-104z" />
<glyph unicode="&#xd5;" d="M70 819q0 389 446 619q369 190 815 190t815 -190q446 -229 447 -619q0 -414 -455 -633q-352 -170 -807 -170t-807 170q-455 219 -454 633zM178 819q0 -354 422 -557q336 -162 731 -162t731 162q422 203 422 557q0 344 -420 553q-344 172 -733 172t-733 -172 q-420 -209 -420 -553zM827 1671v105l340 92v-105zM1167 1763v105l340 -125v-105zM1167 1763l340 -125zM1167 1868l340 -125zM1507 1638v105l344 94v-104z" />
<glyph unicode="&#xd6;" d="M70 819q0 389 446 619q369 190 815 190t815 -190q446 -229 447 -619q0 -414 -455 -633q-352 -170 -807 -170t-807 170q-455 219 -454 633zM178 819q0 -354 422 -557q336 -162 731 -162t731 162q422 203 422 557q0 344 -420 553q-344 172 -733 172t-733 -172 q-420 -209 -420 -553zM1092 1638v138h137v-138h-137zM1434 1638v138h137v-138h-137z" />
<glyph unicode="&#xd7;" horiz-adv-x="909" d="M90 569l252 250l-252 250h125l188 -186l189 186h125l-252 -250l252 -250h-125l-189 187l-188 -187h-125z" />
<glyph unicode="&#xd8;" d="M49 16v105l293 176q-272 205 -272 522q0 395 454 623q369 186 807 186q485 0 867 -217l360 217v-104l-277 -166q311 -217 312 -539q0 -412 -449 -631q-352 -172 -813 -172q-238 0 -469 54q-256 59 -438 172zM178 819q0 -277 262 -463l1661 998q-354 190 -770 190 q-387 0 -731 -170q-422 -209 -422 -555zM524 301q166 -94 391 -149q213 -51 416 -52q397 0 733 162q420 205 420 557q0 287 -297 484z" />
<glyph unicode="&#xd9;" d="M104 614v1014h105v-1014q0 -72 67 -157q152 -193 486 -285q258 -72 569 -72t570 72q334 92 485 285q68 86 68 157v1014h104v-1014q0 -96 -82 -206q-289 -391 -1145 -392q-856 0 -1145 392q-82 111 -82 206zM1176 2138h104l256 -500h-104zM1331 16v84v-84zM1331 16v84v-84 z" />
<glyph unicode="&#xda;" d="M104 614v1014h105v-1014q0 -72 67 -157q152 -193 486 -285q258 -72 569 -72t570 72q334 92 485 285q68 86 68 157v1014h104v-1014q0 -96 -82 -206q-289 -391 -1145 -392q-856 0 -1145 392q-82 111 -82 206zM1176 1638l256 500h104l-256 -500h-104zM1331 16v84v-84z M1331 16v84v-84z" />
<glyph unicode="&#xdb;" d="M104 614v1014h105v-1014q0 -72 67 -157q152 -193 486 -285q258 -72 569 -72t570 72q334 92 485 285q68 86 68 157v1014h104v-1014q0 -96 -82 -206q-289 -391 -1145 -392q-856 0 -1145 392q-82 111 -82 206zM1024 1638l256 500h104l256 -500h-104l-203 398l-205 -398h-104 zM1331 16v84v-84zM1331 16v84v-84z" />
<glyph unicode="&#xdc;" d="M104 614v1014h105v-1014q0 -72 67 -157q152 -193 486 -285q258 -72 569 -72t570 72q334 92 485 285q68 86 68 157v1014h104v-1014q0 -96 -82 -206q-289 -391 -1145 -392q-856 0 -1145 392q-82 111 -82 206zM1092 1638v138h137v-138h-137zM1331 16v84v-84zM1331 16v84v-84 zM1434 1638v138h137v-138h-137z" />
<glyph unicode="&#xdd;" d="M49 1503v125l1231 -479h104l1174 479v-125l-1174 -479v-1008h-104v1008zM1176 1638l256 500h104l-256 -500h-104z" />
<glyph unicode="&#xde;" horiz-adv-x="819" d="M176 205v205h2v819h-2v205h105v-1229h-105zM176 205h105h-105zM176 1434h105h-105zM281 410v819q233 0 342 -86q119 -96 118 -324q0 -225 -120 -323q-109 -88 -340 -86zM281 516q178 -2 260 59q94 72 94 244q0 305 -354 303v-606z" />
<glyph unicode="&#xdf;" d="M49 -319q274 102 549 204q406 131 858 131l2 101q-696 0 -1304 -295v1702h868v104h-973v-1947zM154 -178zM154 -178v1702v-1702zM995 1024v104h2q96 0 162 56.5t66 148.5q0 86 -58.5 138.5t-144.5 52.5v104q135 0 224 -80t89 -211q0 -121 -80 -209h76q1270 -12 1270 -534 q0 -324 -436 -471q-281 -94 -709 -107l2 101q375 16 621 90q406 125 405 387q0 244 -475 356q-309 74 -678 74h-336zM995 1024v104h2l334 -104h-336zM1092 1128l239 -104v104h-239zM1092 1128l239 -104v104h-239zM1255 1128h76h-76zM1331 1024v104v-104zM1331 1024v104v-104 zM1331 1024v104v-104zM1331 1024v104v-104zM1456 16l2 101zM1458 16v101v-101zM1458 16v101v-101z" />
<glyph unicode="&#xe0;" d="M14 16l1317 1612l1282 -1612h-104l-809 1008h-735l-811 -1008h-140zM1049 1128h567l-285 355zM1176 2138h104l256 -500h-104z" />
<glyph unicode="&#xe1;" d="M14 16l1317 1612l1282 -1612h-104l-809 1008h-735l-811 -1008h-140zM1049 1128h567l-285 355zM1176 1638l256 500h104l-256 -500h-104z" />
<glyph unicode="&#xe2;" d="M14 16l1317 1612l1282 -1612h-104l-809 1008h-735l-811 -1008h-140zM1024 1638l256 500h104l256 -500h-104l-203 398l-205 -398h-104zM1049 1128h567l-285 355z" />
<glyph unicode="&#xe3;" d="M14 16l1317 1612l1282 -1612h-104l-809 1008h-735l-811 -1008h-140zM827 1671v105l340 92v-105zM1049 1128h567l-285 355zM1167 1763l340 -125zM1167 1763v105l340 -125v-105zM1167 1868l340 -125zM1507 1638v105l344 94v-104z" />
<glyph unicode="&#xe4;" d="M14 16l1317 1612l1282 -1612h-104l-809 1008h-735l-811 -1008h-140zM1049 1128h567l-285 355zM1092 1638v138h137v-138h-137zM1434 1638v138h137v-138h-137z" />
<glyph unicode="&#xe5;" d="M14 16l1317 1612l1282 -1612h-104l-809 1008h-735l-811 -1008h-140zM1049 1128h567l-285 355zM1133 1821q0 88 69 141q59 43 129 43t129 -43q70 -53 70 -141q0 -94 -72 -144q-55 -39 -127 -39t-127 39q-72 49 -71 144zM1174 1821q0 -70 57 -109q47 -31 100 -31t101 31 q57 39 57 109q0 68 -57 108q-48 33 -101 33t-100 -33q-57 -41 -57 -108z" />
<glyph unicode="&#xe6;" d="M49 16l1190 1612h451v-104h-342v-396h649v-104h-649v-907h1210v-101h-1319v1008h-342l-743 -1008h-105zM963 1128h276v396z" />
<glyph unicode="&#xe7;" d="M70 819q0 395 454 623q369 186 807 186q332 0 606 -88q326 -104 512 -319q96 -115 109 -197h-104q-12 61 -91 143q-178 188 -477 289q-264 88 -555 88q-387 0 -731 -170q-422 -209 -422 -555q0 -352 420 -557q336 -162 733 -162q285 0 545 84q291 94 471 275 q90 90 107 155h104q-10 -82 -109 -194q-180 -207 -493 -311q-262 -86 -584 -93l-123 2q-446 18 -766 189q-414 219 -413 612zM553 -303h106q-2 -106 119 -162q90 -41 213 -41q115 0 191 43q96 53 94 160h131q0 -152 -137 -238q-117 -72 -279 -71q-166 0 -289 71 q-149 86 -149 238zM553 -303h106q-2 -106 119 -162q90 -41 213 -41q115 0 191 43q96 53 94 160h131q0 -152 -137 -238q-117 -72 -279 -71q-166 0 -289 71q-149 86 -149 238zM553 -303h106q-2 -106 119 -162q90 -41 213 -41q115 0 191 43q96 53 94 160h131q0 -152 -137 -238 q-117 -72 -279 -71q-166 0 -289 71q-149 86 -149 238zM553 -303h106q-2 -106 119 -162q90 -41 213 -41q115 0 191 43q96 53 94 160h131q0 -152 -137 -238q-117 -72 -279 -71q-166 0 -289 71q-149 86 -149 238zM1200 -129q0 80 49 147l123 -2q-66 -68 -65 -139 q0 -84 100 -180h-131q-76 78 -76 174zM1200 -129q0 80 49 147l123 -2q-66 -68 -65 -139q0 -84 100 -180h-131q-76 78 -76 174zM1200 -129q0 80 49 147l123 -2q-66 -68 -65 -139q0 -84 100 -180h-131q-76 78 -76 174zM1200 -129q0 80 49 147l123 -2q-66 -68 -65 -139 q0 -84 100 -180h-131q-76 78 -76 174zM1249 18l123 -2z" />
<glyph unicode="&#xe8;" d="M49 16v1612h975v-104h-870v-396h1177v-104h-1177v-907h2457v-101h-2562zM1176 2138h104l256 -500h-104z" />
<glyph unicode="&#xe9;" d="M49 16v1612h975v-104h-870v-396h1177v-104h-1177v-907h2457v-101h-2562zM1176 1638l256 500h104l-256 -500h-104z" />
<glyph unicode="&#xea;" d="M49 16v1612h975v-104h-870v-396h1177v-104h-1177v-907h2457v-101h-2562zM1024 1638l256 500h104l256 -500h-104l-203 398l-205 -398h-104z" />
<glyph unicode="&#xeb;" d="M49 16v1612h975v-104h-870v-396h1177v-104h-1177v-907h2457v-101h-2562zM1092 1638v138h137v-138h-137zM1434 1638v138h137v-138h-137z" />
<glyph unicode="&#xec;" horiz-adv-x="563" d="M49 2138h105l256 -500h-105zM176 16v1612h105v-1612h-105z" />
<glyph unicode="&#xed;" horiz-adv-x="563" d="M49 1638l256 500h105l-256 -500h-105zM176 16v1612h105v-1612h-105z" />
<glyph unicode="&#xee;" horiz-adv-x="819" d="M51 1638l256 500h105l256 -500h-105l-203 398l-204 -398h-105zM305 16v1612h105v-1612h-105z" />
<glyph unicode="&#xef;" horiz-adv-x="716" d="M49 1638v138h137v-138h-137zM254 16v1612h104v-1612h-104zM426 1638v138h137v-138h-137z" />
<glyph unicode="&#xf0;" horiz-adv-x="1669" d="M57 485q0 229 240 357q190 100 453 108l-220 275l-366 -168l-33 76l346 147q-98 170 -364 227l67 33q236 -47 363 -233l358 151l33 -76l-338 -131l235 -301q260 -10 451 -110q238 -127 238 -355q0 -229 -265 -360q-213 -109 -467 -109t-469 109q-262 131 -262 360z M119 485q0 -201 246 -321q198 -98 423 -98q223 0 424 98q244 121 244 321q0 205 -244 324q-195 94 -424 94q-231 0 -426 -94q-244 -119 -243 -324z" />
<glyph unicode="&#xf1;" d="M49 16v1612h105l2300 -1542v1542h104v-1612h-104l-2300 1543v-1543h-105zM827 1671v105l340 92v-105zM1167 1763v105l340 -125v-105zM1167 1763l340 -125zM1167 1868l340 -125zM1507 1638v105l344 94v-104z" />
<glyph unicode="&#xf2;" d="M70 819q0 395 454 623q369 186 807 186t807 -186q455 -227 455 -623q0 -412 -449 -631q-354 -172 -813 -172t-813 172q-449 219 -448 631zM178 819q0 -352 420 -557q336 -162 733 -162t733 162q420 205 420 557q0 346 -422 555q-344 170 -731 170t-731 -170 q-422 -209 -422 -555zM1176 2138h104l256 -500h-104z" />
<glyph unicode="&#xf3;" d="M70 819q0 389 446 619q369 190 815 190t815 -190q446 -229 447 -619q0 -414 -455 -633q-352 -170 -807 -170t-807 170q-455 219 -454 633zM178 819q0 -354 422 -557q336 -162 731 -162t731 162q422 203 422 557q0 344 -420 553q-344 172 -733 172t-733 -172 q-420 -209 -420 -553zM1176 1638l256 500h104l-256 -500h-104z" />
<glyph unicode="&#xf4;" d="M70 819q0 389 446 619q369 190 815 190t815 -190q446 -229 447 -619q0 -414 -455 -633q-352 -170 -807 -170t-807 170q-455 219 -454 633zM178 819q0 -354 422 -557q336 -162 731 -162t731 162q422 203 422 557q0 344 -420 553q-344 172 -733 172t-733 -172 q-420 -209 -420 -553zM1024 1638l256 500h104l256 -500h-104l-203 398l-205 -398h-104z" />
<glyph unicode="&#xf5;" d="M70 819q0 389 446 619q369 190 815 190t815 -190q446 -229 447 -619q0 -414 -455 -633q-352 -170 -807 -170t-807 170q-455 219 -454 633zM178 819q0 -354 422 -557q336 -162 731 -162t731 162q422 203 422 557q0 344 -420 553q-344 172 -733 172t-733 -172 q-420 -209 -420 -553zM827 1671v105l340 92v-105zM1167 1763v105l340 -125v-105zM1167 1763l340 -125zM1167 1868l340 -125zM1507 1638v105l344 94v-104z" />
<glyph unicode="&#xf6;" d="M70 819q0 389 446 619q369 190 815 190t815 -190q446 -229 447 -619q0 -414 -455 -633q-352 -170 -807 -170t-807 170q-455 219 -454 633zM178 819q0 -354 422 -557q336 -162 731 -162t731 162q422 203 422 557q0 344 -420 553q-344 172 -733 172t-733 -172 q-420 -209 -420 -553zM1092 1638v138h137v-138h-137zM1434 1638v138h137v-138h-137z" />
<glyph unicode="&#xf7;" horiz-adv-x="1134" d="M49 819v105h922v-105h-922zM49 819h922v105h-922v-105zM49 819h922v105h-922v-105zM395 498q0 49 35 82.5t82 33.5q49 0 83 -33.5t34 -82.5t-34 -83t-83 -34q-47 0 -82 34t-35 83zM395 1245q0 49 35 83t82 34q49 0 83 -34t34 -83t-34 -83t-83 -34q-47 0 -82 34t-35 83z " />
<glyph unicode="&#xf8;" d="M49 16v105l293 176q-272 205 -272 522q0 395 454 623q369 186 807 186q485 0 867 -217l360 217v-104l-277 -166q311 -217 312 -539q0 -412 -449 -631q-352 -172 -813 -172q-238 0 -469 54q-256 59 -438 172zM178 819q0 -277 262 -463l1661 998q-354 190 -770 190 q-387 0 -731 -170q-422 -209 -422 -555zM524 301q166 -94 391 -149q213 -51 416 -52q397 0 733 162q420 205 420 557q0 287 -297 484z" />
<glyph unicode="&#xf9;" d="M104 614v1014h105v-1014q0 -72 67 -157q152 -193 486 -285q258 -72 569 -72t570 72q334 92 485 285q68 86 68 157v1014h104v-1014q0 -96 -82 -206q-289 -391 -1145 -392q-856 0 -1145 392q-82 111 -82 206zM1176 2138h104l256 -500h-104zM1331 16v84v-84zM1331 16v84v-84 z" />
<glyph unicode="&#xfa;" d="M104 614v1014h105v-1014q0 -72 67 -157q152 -193 486 -285q258 -72 569 -72t570 72q334 92 485 285q68 86 68 157v1014h104v-1014q0 -96 -82 -206q-289 -391 -1145 -392q-856 0 -1145 392q-82 111 -82 206zM1176 1638l256 500h104l-256 -500h-104zM1331 16v84v-84z M1331 16v84v-84z" />
<glyph unicode="&#xfb;" d="M104 614v1014h105v-1014q0 -72 67 -157q152 -193 486 -285q258 -72 569 -72t570 72q334 92 485 285q68 86 68 157v1014h104v-1014q0 -96 -82 -206q-289 -391 -1145 -392q-856 0 -1145 392q-82 111 -82 206zM1024 1638l256 500h104l256 -500h-104l-203 398l-205 -398h-104 zM1331 16v84v-84zM1331 16v84v-84z" />
<glyph unicode="&#xfc;" d="M104 614v1014h105v-1014q0 -72 67 -157q152 -193 486 -285q258 -72 569 -72t570 72q334 92 485 285q68 86 68 157v1014h104v-1014q0 -96 -82 -206q-289 -391 -1145 -392q-856 0 -1145 392q-82 111 -82 206zM1092 1638v138h137v-138h-137zM1331 16v84v-84zM1331 16v84v-84 zM1434 1638v138h137v-138h-137z" />
<glyph unicode="&#xfd;" d="M49 1503v125l1231 -479h104l1174 479v-125l-1174 -479v-1008h-104v1008zM1176 1638l256 500h104l-256 -500h-104z" />
<glyph unicode="&#xfe;" horiz-adv-x="1122" d="M176 20v1598h103v-1598h-103zM279 369v901q246 0 391 -101q172 -117 172 -350q0 -453 -563 -450zM279 475q457 0 456 344q0 344 -456 344v-688z" />
<glyph unicode="&#xff;" d="M49 1503v125l1231 -479h104l1174 479v-125l-1174 -479v-1008h-104v1008zM1092 1638v138h137v-138h-137zM1434 1638v138h137v-138h-137z" />
<glyph unicode="&#x152;" d="M31 819q0 362 147 572q170 238 516 237q395 0 549 -287v287h447v-104h-342v-396h649v-104h-649v-907h1210v-101h-1315v283q-152 -283 -549 -283q-365 0 -524 226q-139 193 -139 577zM139 819q0 -340 107 -510q133 -209 448 -209q545 0 545 719q0 725 -545 725 q-299 0 -438 -221q-117 -184 -117 -504z" />
<glyph unicode="&#x153;" d="M31 819q0 362 147 572q170 238 516 237q395 0 549 -287v287h447v-104h-342v-396h649v-104h-649v-907h1210v-101h-1315v283q-152 -283 -549 -283q-365 0 -524 226q-139 193 -139 577zM139 819q0 -340 107 -510q133 -209 448 -209q545 0 545 719q0 725 -545 725 q-299 0 -438 -221q-117 -184 -117 -504z" />
<glyph unicode="&#x178;" d="M49 1503v125l1231 -479h104l1174 479v-125l-1174 -479v-1008h-104v1008zM1092 1638v138h137v-138h-137zM1434 1638v138h137v-138h-137z" />
<glyph unicode="&#x2c6;" horiz-adv-x="1126" d="M49 1128l256 500h105l256 -500h-105l-203 398l-204 -398h-105z" />
<glyph unicode="&#x2dc;" horiz-adv-x="2150" d="M49 1421v105l340 92v-105zM389 1513v105l340 -125v-104zM389 1513l340 -124zM389 1618l340 -125zM729 1389v104l344 94v-104z" />
<glyph unicode="&#x2000;" horiz-adv-x="1069" />
<glyph unicode="&#x2001;" horiz-adv-x="2138" />
<glyph unicode="&#x2002;" horiz-adv-x="1069" />
<glyph unicode="&#x2003;" horiz-adv-x="2138" />
<glyph unicode="&#x2004;" horiz-adv-x="712" />
<glyph unicode="&#x2005;" horiz-adv-x="534" />
<glyph unicode="&#x2006;" horiz-adv-x="356" />
<glyph unicode="&#x2007;" horiz-adv-x="356" />
<glyph unicode="&#x2008;" horiz-adv-x="267" />
<glyph unicode="&#x2009;" horiz-adv-x="427" />
<glyph unicode="&#x200a;" horiz-adv-x="118" />
<glyph unicode="&#x2010;" horiz-adv-x="700" d="M49 819v105h500v-105h-500zM49 819h500v105h-500v-105zM49 819h500v105h-500v-105z" />
<glyph unicode="&#x2011;" horiz-adv-x="700" d="M49 819v105h500v-105h-500zM49 819h500v105h-500v-105zM49 819h500v105h-500v-105z" />
<glyph unicode="&#x2012;" horiz-adv-x="700" d="M49 819v105h500v-105h-500zM49 819h500v105h-500v-105zM49 819h500v105h-500v-105z" />
<glyph unicode="&#x2013;" horiz-adv-x="819" d="M49 -16h615v-88h-615v88z" />
<glyph unicode="&#x2014;" d="M49 -16h2509v-88h-2509v88z" />
<glyph unicode="&#x2018;" horiz-adv-x="561" d="M49 1628l256 -500h105l-256 500h-105z" />
<glyph unicode="&#x2019;" horiz-adv-x="561" d="M49 1128l256 500h105l-256 -500h-105z" />
<glyph unicode="&#x201a;" horiz-adv-x="561" d="M49 16l256 500h105l-256 -500h-105z" />
<glyph unicode="&#x201c;" horiz-adv-x="792" d="M49 1628l256 -500h105l-256 500h-105zM274 1628l256 -500h105l-256 500h-105z" />
<glyph unicode="&#x201d;" horiz-adv-x="792" d="M49 1128l256 500h105l-256 -500h-105zM274 1128l256 500h105l-256 -500h-105z" />
<glyph unicode="&#x201e;" horiz-adv-x="792" d="M49 16l256 500h105l-256 -500h-105zM274 16l256 500h105l-256 -500h-105z" />
<glyph unicode="&#x2022;" horiz-adv-x="673" d="M49 817q0 96 67.5 164t164.5 68q96 0 163.5 -68t67.5 -164t-67.5 -163.5t-163.5 -67.5t-164 67.5t-68 163.5z" />
<glyph unicode="&#x2026;" horiz-adv-x="1333" d="M49 16v205h205v-205h-205zM459 16v205h205v-205h-205zM868 16v205h205v-205h-205z" />
<glyph unicode="&#x202f;" horiz-adv-x="427" />
<glyph unicode="&#x2039;" horiz-adv-x="1097" d="M49 768v104l592 410v-104l-516 -359l516 -362v-105z" />
<glyph unicode="&#x203a;" horiz-adv-x="1097" d="M49 352l592 416v104l-592 410v-104l516 -359l-516 -362v-105z" />
<glyph unicode="&#x205f;" horiz-adv-x="534" />
<glyph unicode="&#x2122;" horiz-adv-x="2252" d="M102 1587v41h1004v-41h-469v-604h-43v604h-492zM1067 983l238 645h41l235 -201l236 201h41l237 -645h-41l-227 616l-246 -215l-246 215l-225 -616h-43zM1346 1628zM1817 1628z" />
<glyph unicode="&#x25fc;" horiz-adv-x="1628" d="M0 0v1628h1628v-1628h-1628z" />
</font>
</defs>
</svg>
